<svg width="16" height="20" viewBox="0 0 16 20" fill="none" xmlns="http://www.w3.org/2000/svg">
<path d="M8.8589 20H7.1411C5.1272 20 4.0472 19.7215 3.0695 19.1986C2.0917 18.6757 1.3243 17.9083 0.801399 16.9305C0.278499 15.9528 0 14.8728 0 12.8589V7.1411C0 5.1272 0.278499 4.0472 0.801399 3.0695C1.3243 2.0917 2.0917 1.3243 3.0695 0.801399C4.0472 0.278499 5.1272 0 7.1411 0H8.8589C10.8728 0 11.9528 0.278499 12.9305 0.801399C13.9083 1.3243 14.6757 2.0917 15.1986 3.0695C15.7215 4.0472 16 5.1272 16 7.1411L16 12.8589C16 14.8728 15.7215 15.9528 15.1986 16.9305C14.6757 17.9083 13.9083 18.6757 12.9305 19.1986C11.9528 19.7215 10.8728 20 8.8589 20ZM9 16V11L7 11L7 16H9Z" fill="white"/>
</svg>
